<svg width="52" height="56" viewBox="0 0 52 56" fill="none" xmlns="http://www.w3.org/2000/svg">
<g id="apple-13 1">
<g id="Group 1171275734">
<path id="Vector" fill-rule="evenodd" clip-rule="evenodd" d="M40.5364 21.4253H44.4855L44.0191 23.7209C45.2257 21.8335 46.607 21.2895 48.2994 21.1728C48.8828 21.154 49.6028 21.2313 50.2451 21.3284L49.4856 24.3438C48.8635 24.1882 48.2025 24.0714 47.6185 24.0714C45.2839 24.0328 43.5521 25.6076 42.9494 27.8638L41.5871 33.0394H37.5022C38.5132 29.1681 39.8561 24.9471 40.5364 21.4253Z" fill="#376355"/>
<path id="Vector_2" fill-rule="evenodd" clip-rule="evenodd" d="M29.3083 26.5826C29.9892 26.252 32.3626 26.2879 33.8994 26.0934C35.6701 25.8795 38.1399 24.9066 38.0811 23.4282C37.9842 21.8523 36.5842 21.4951 35.2804 21.6703C32.207 22.1177 30.2031 24.1316 29.3083 26.5826ZM28.9278 27.5882C28.8502 28.2685 28.7638 28.9923 28.8217 29.5371C29.0743 31.463 30.7631 32.3639 32.5722 32.4221C34.0792 32.4578 35.9159 31.5566 36.9151 30.434C37.1037 30.2217 37.3208 30.291 37.4486 30.4603C37.546 30.5897 37.5079 30.8817 37.4177 30.9708C35.8488 32.5287 34.2356 33.4076 31.9931 33.4269C29.4446 33.4462 26.2534 32.4745 25.8648 29.8291C25.8063 29.5178 25.8063 29.1676 25.8452 28.7975C26.3511 23.8967 30.8259 21.2492 35.2224 21.0158C37.3232 20.899 40.3588 21.4438 40.183 23.7202C40.0086 26.1132 36.3896 26.9497 34.0357 27.008C32.0513 27.0662 29.6086 27.0574 28.9278 27.5882Z" fill="#376355"/>
<path id="Vector_3" fill-rule="evenodd" clip-rule="evenodd" d="M26.732 30.3557L26.071 32.8843C24.962 33.118 23.5217 33.3325 22.1986 33.293C18.2688 33.2154 15.3895 31.4055 15.5647 27.6703C15.7783 23.3713 20.0396 21.1728 24.1446 21.1143C25.5066 21.1143 26.7516 21.2501 28.1326 21.581L26.9072 24.0127C26.0122 23.7599 24.8059 23.5264 23.5995 23.6431C21.7123 23.7792 19.9811 24.791 19.4752 26.7753C18.8136 29.2653 20.2532 31.0172 22.8019 31.0172C24.1443 31.0172 25.4481 30.7451 26.732 30.3557Z" fill="#376355"/>
<path id="Vector_4" fill-rule="evenodd" clip-rule="evenodd" d="M10.118 21.1523C13.4059 21.1523 15.8821 21.9075 16.1183 24.6374C16.2093 25.6876 15.8266 26.6242 15.5349 27.7334L14.1646 33.059C11.5383 33.059 9.39826 33.1172 7.02478 33.312C4.82627 33.312 2.19971 32.8451 2.19971 30.0433C2.24587 25.4651 9.33976 25.8797 12.3552 25.8797C12.9974 24.051 11.4991 23.3117 9.39799 23.3117C7.49148 23.3117 5.92123 23.8565 4.38426 24.3623L4.92315 21.8914C6.42174 21.4052 8.34758 21.1523 10.118 21.1523ZM11.9078 27.7084C10.2512 27.7084 5.56966 27.3177 5.56966 29.8487C5.56966 31.113 6.89274 31.3017 8.00165 31.3017C10.9156 31.3017 11.3703 30.2843 11.9078 27.7084ZM48.8713 30.6847C48.6616 30.6834 48.4538 30.7242 48.2601 30.8044C48.0663 30.8847 47.8907 31.003 47.7433 31.1522C47.4331 31.4828 47.2573 31.8907 47.2573 32.3185C47.2573 32.7474 47.4328 33.1363 47.7248 33.4476C48.035 33.7589 48.444 33.9339 48.871 33.9339C49.2993 33.9339 49.7081 33.7589 50.0199 33.4476C50.3318 33.1363 50.4864 32.7474 50.4864 32.3185C50.4864 31.8719 50.3318 31.464 50.0199 31.1718C49.7086 30.8605 49.2996 30.6847 48.8713 30.6847ZM50.3323 32.3185C50.3323 32.7079 50.1761 33.0592 49.9035 33.3306C49.6279 33.6017 49.2578 33.7552 48.8713 33.7589C48.6798 33.7587 48.4902 33.7208 48.3134 33.6473C48.1366 33.5738 47.9759 33.4662 47.8407 33.3306C47.5686 33.059 47.4135 32.6889 47.4135 32.3185C47.4135 31.9307 47.5686 31.5606 47.8407 31.2681C48.1142 30.995 48.4848 30.8413 48.8713 30.8409C49.2612 30.8409 49.6313 30.9965 49.9035 31.2885C50.1761 31.5606 50.3323 31.9103 50.3323 32.3185ZM48.9113 31.3462H48.2492V33.2149H48.5028V32.3778H48.9698L49.3777 33.2149H49.6702L49.2419 32.359C49.514 32.3188 49.6896 32.1242 49.6896 31.8722C49.6896 31.5024 49.4365 31.3462 48.9113 31.3462ZM48.8713 31.5217C49.2419 31.5217 49.4362 31.6186 49.4362 31.8524C49.4362 32.1438 49.2612 32.2219 48.8713 32.2219H48.5028V31.5217H48.8713Z" fill="#376355"/>
</g>
</g>
</svg>
