<svg width="50" height="50" viewBox="0 0 50 50" fill="none" xmlns="http://www.w3.org/2000/svg">
<g id="dell-2 1" clip-path="url(#clip0_311_13776)">
<g id="Group">
<path id="Vector" d="M24.2253 0H25.7749C33.3127 0.426421 38.6871 3.29784 42.6716 7.32203C46.6561 11.3462 49.6015 16.6538 49.995 24.2478V25.7523C49.6123 33.4678 46.615 38.5599 42.6716 42.7032C38.5291 46.6387 33.4367 49.6205 25.7499 49.9999H24.2253C16.6885 49.5726 11.3131 46.7024 7.32862 42.678C3.34415 38.6538 0.398714 33.3463 0.00512695 25.7523V24.2478C0.0247416 24.2423 0.0343334 24.2268 0.0301303 24.1976C0.407012 16.6326 3.3685 11.2699 7.32873 7.29694C11.3072 3.30552 16.7373 0.413555 24.2253 0ZM19.3262 3.58576C17.8411 3.98472 16.5093 4.49136 15.3021 5.09024C11.6277 6.91301 8.59754 9.52084 6.47883 12.8635C4.41088 16.1264 2.62034 20.3236 2.87965 25.8274C3.04314 29.2973 3.83236 32.2161 5.07907 34.7041C7.54115 39.6167 11.2895 43.2364 16.4769 45.4364C19.0421 46.5243 22.2207 47.2874 25.8 47.1164C29.2333 46.9523 32.2084 46.1781 34.6733 44.9348C39.5041 42.4981 43.3112 38.7383 45.4213 33.5507C46.4884 30.9265 47.2954 27.895 47.121 24.2226C46.7907 17.2659 43.97 12.5489 40.2474 8.95181C38.4055 7.17196 36.1875 5.65797 33.5738 4.5637C31.0378 3.50197 27.7364 2.71476 24.2006 2.88364C22.4623 2.96667 20.8225 3.18378 19.3262 3.58576Z" fill="#0083CA"/>
<path id="Vector_2" d="M22.7008 18.5059C23.4927 19.032 24.3027 19.54 25.0503 20.1107C23.3614 21.1746 21.7057 22.2719 20.0264 23.3454C20.2814 23.541 20.5713 23.7014 20.8262 23.897C22.5195 22.8208 24.2133 21.7452 25.9002 20.6623C26.6568 21.1321 27.4016 21.6135 28.0998 22.1418C26.4095 23.2128 24.7759 24.3405 23.1008 25.4265C23.349 25.6291 23.6532 25.7751 23.9255 25.9532C25.6569 24.8901 27.3451 23.7837 29.0494 22.6935V19.1327H32.7987V26.2291C33.8568 26.2875 35.0234 26.2374 36.1232 26.254V29.5891H29.0494V26.2038C26.9711 27.4705 24.8413 28.903 22.7508 30.241C20.5736 28.8228 18.4754 27.325 16.3021 25.903C15.6725 27.9051 14.1771 29.4112 11.7029 29.5891C10.1598 29.6998 8.4063 29.5064 6.62891 29.5891V19.1327C8.85097 19.2804 11.2909 18.8346 13.0526 19.3835C14.6102 19.8688 15.7146 21.1156 16.2269 22.6683C18.4019 21.2979 20.542 19.8927 22.7008 18.5059ZM10.2031 22.4929V26.2541C11.0962 26.2585 11.7755 26.3105 12.3026 25.9031C13.0869 25.2971 13.2449 23.7948 12.5525 22.9943C12.0905 22.4602 11.3105 22.3481 10.228 22.4176C10.1991 22.4218 10.2009 22.4573 10.2031 22.4929ZM37.0978 19.1327H40.847V26.2541H44.1464V29.5892H37.0726V19.208C37.0707 19.1724 37.0686 19.1369 37.0978 19.1327Z" fill="#0083CA"/>
</g>
</g>
<defs>
<clipPath id="clip0_311_13776">
<rect width="50" height="50" fill="white" transform="translate(0.000244141)"/>
</clipPath>
</defs>
</svg>
