<svg width="18" height="19" viewBox="0 0 18 19" fill="none" xmlns="http://www.w3.org/2000/svg">
<g id="edit">
<path id="Vector" d="M11.116 3.02675L1.21213 12.9314C1.16226 12.9814 1.12671 13.0438 1.10921 13.1123L0.01142 17.5184C-0.00472564 17.5838 -0.00373618 17.6523 0.0142928 17.7172C0.0323218 17.7821 0.0667811 17.8412 0.114342 17.8889C0.187395 17.9617 0.286306 18.0026 0.389446 18.0027C0.421264 18.0027 0.452959 17.9988 0.483816 17.991L4.88998 16.8931C4.95849 16.8759 5.02103 16.8403 5.0709 16.7903L14.9757 6.88636L11.116 3.02675ZM17.4293 1.67626L16.3268 0.573831C15.59 -0.162997 14.3058 -0.162266 13.5698 0.573831L12.2193 1.92432L16.0788 5.78378L17.4293 4.43333C17.7973 4.06543 18.0001 3.57571 18.0001 3.05489C18.0001 2.53406 17.7973 2.04434 17.4293 1.67626Z" fill="#3D3C48"/>
</g>
</svg>
