<svg width="48" height="48" viewBox="0 0 48 48" fill="none" xmlns="http://www.w3.org/2000/svg">
<g id="Group 1000002665">
<rect id="Rectangle 17726" width="48" height="48" rx="16" fill="#F0F6FF"/>
<g id="Group 1000002663">
<g id="Group 36117" opacity="0.5">
<path id="Path 4124" d="M13.0007 19.5027C12.7353 19.5027 12.4808 19.3973 12.2931 19.2096C12.1054 19.022 12 18.7674 12 18.502V17.002C12.0008 16.2066 12.3171 15.444 12.8796 14.8815C13.442 14.3191 14.2046 14.0027 15.0001 14.002H16.5001C16.7655 14.002 17.02 14.1074 17.2077 14.295C17.3953 14.4827 17.5008 14.7372 17.5008 15.0026C17.5008 15.268 17.3953 15.5226 17.2077 15.7102C17.02 15.8979 16.7655 16.0033 16.5001 16.0033H15.0001C14.7347 16.0036 14.4804 16.1091 14.2928 16.2967C14.1052 16.4843 13.9996 16.7387 13.9994 17.004V18.505C13.9994 18.6361 13.9735 18.766 13.9234 18.8872C13.8732 19.0084 13.7996 19.1184 13.7069 19.2112C13.6141 19.3039 13.504 19.3775 13.3829 19.4277C13.2617 19.4779 13.1318 19.5037 13.0007 19.5037V19.5027Z" fill="#63A4F9"/>
<path id="Path 4125" d="M35.0016 19.5037C34.7362 19.5037 34.4817 19.3983 34.294 19.2106C34.1063 19.023 34.0009 18.7684 34.0009 18.5031V17.002C34.0007 16.7367 33.8951 16.4823 33.7075 16.2947C33.5199 16.1071 33.2655 16.0016 33.0002 16.0014H31.5002C31.2348 16.0014 30.9803 15.8959 30.7926 15.7083C30.605 15.5206 30.4995 15.2661 30.4995 15.0007C30.4995 14.7353 30.605 14.4808 30.7926 14.2931C30.9803 14.1054 31.2348 14 31.5002 14H33.0002C33.7956 14.0008 34.5583 14.3171 35.1207 14.8796C35.6832 15.442 35.9995 16.2046 36.0003 17.0001V18.5001C36.0008 18.6316 35.9754 18.762 35.9254 18.8836C35.8755 19.0053 35.802 19.116 35.7092 19.2092C35.6165 19.3024 35.5062 19.3764 35.3848 19.427C35.2633 19.4775 35.1331 19.5036 35.0016 19.5037Z" fill="#63A4F9"/>
<path id="Path 4126" d="M16.5001 34.0027H15.0001C14.2046 34.0019 13.442 33.6856 12.8796 33.1231C12.3171 32.5607 12.0008 31.7981 12 31.0027V29.5026C12 29.2372 12.1054 28.9827 12.2931 28.795C12.4808 28.6074 12.7353 28.502 13.0007 28.502C13.2661 28.502 13.5206 28.6074 13.7083 28.795C13.8959 28.9827 14.0014 29.2372 14.0014 29.5026V31.0027C14.0016 31.268 14.1071 31.5224 14.2947 31.71C14.4823 31.8976 14.7367 32.0031 15.002 32.0033H16.5021C16.7672 32.0033 17.0215 32.1087 17.2089 32.2961C17.3964 32.4836 17.5018 32.7379 17.5018 33.003C17.5018 33.2682 17.3964 33.5224 17.2089 33.7099C17.0215 33.8974 16.7672 34.0027 16.5021 34.0027H16.5001Z" fill="#63A4F9"/>
<path id="Path 4127" d="M33.0002 34.0027H31.5002C31.2348 34.0027 30.9803 33.8973 30.7926 33.7096C30.6049 33.522 30.4995 33.2674 30.4995 33.002C30.4995 32.7366 30.6049 32.4821 30.7926 32.2945C30.9803 32.1068 31.2348 32.0014 31.5002 32.0014H33.0002C33.2655 32.0011 33.5199 31.8956 33.7075 31.708C33.8951 31.5204 34.0006 31.266 34.0009 31.0007V29.5007C34.0009 29.2353 34.1063 28.9808 34.294 28.7931C34.4817 28.6054 34.7362 28.5 35.0016 28.5C35.267 28.5 35.5215 28.6054 35.7092 28.7931C35.8968 28.9808 36.0023 29.2353 36.0023 29.5007V31.0007C36.0012 31.7966 35.6846 32.5595 35.1218 33.1223C34.5591 33.6851 33.7961 34.0017 33.0002 34.0027Z" fill="#63A4F9"/>
</g>
<path id="Path 4128" d="M23.9994 17.9314C22.2018 17.8771 20.4381 18.4283 18.9914 19.4966C17.5446 20.5649 16.4987 22.0882 16.0216 23.8222C15.9915 23.9405 15.9915 24.0644 16.0216 24.1827C16.5489 25.8866 17.6078 27.3769 19.0434 28.4354C20.479 29.4939 22.2158 30.0649 23.9994 30.0649C25.783 30.0649 27.5198 29.4939 28.9554 28.4354C30.391 27.3769 31.4499 25.8866 31.9772 24.1827C32.0073 24.0644 32.0073 23.9405 31.9772 23.8222C31.4999 22.0883 30.454 20.5651 29.0073 19.4968C27.5606 18.4286 25.797 17.8773 23.9994 17.9314ZM23.9994 27.0025C23.4061 27.0025 22.826 26.8265 22.3327 26.4969C21.8393 26.1672 21.4548 25.6987 21.2277 25.1505C21.0006 24.6023 20.9412 23.9991 21.057 23.4171C21.1728 22.8352 21.4585 22.3006 21.878 21.8811C22.2976 21.4615 22.8322 21.1758 23.4141 21.06C23.9961 20.9443 24.5993 21.0037 25.1475 21.2307C25.6957 21.4578 26.1642 21.8423 26.4939 22.3357C26.8235 22.829 26.9995 23.4091 26.9995 24.0024C26.9971 24.7974 26.6803 25.5591 26.1182 26.1212C25.5561 26.6833 24.7944 27.0001 23.9994 27.0025Z" fill="#63A4F9"/>
</g>
</g>
</svg>
