<svg width="100" height="100" viewBox="0 0 100 100" fill="none" xmlns="http://www.w3.org/2000/svg">
<g id="Group 1171275885">
<rect id="Rectangle 17801" width="100" height="100" rx="20" fill="#F4F6F9"/>
<g id="Group 1171275884">
<path id="Union" fill-rule="evenodd" clip-rule="evenodd" d="M34.0654 45.947H31.1225C24.9797 45.947 20 50.9267 20 57.0695C20 63.2123 24.9797 68.192 31.1225 68.192H68.1151C74.2579 68.192 79.2376 63.2123 79.2376 57.0695C79.2376 50.9267 74.2579 45.947 68.1151 45.947H65.173C65.0074 44.4368 64.6173 42.9253 63.9847 41.4572C60.5662 33.5229 51.363 29.8622 43.4287 33.2807C38.0711 35.5891 34.662 40.5351 34.0654 45.947Z" fill="#98A2BE"/>
<g id="Group 1171275883">
<path id="Path 42" d="M45.9598 49.9726C45.8168 49.9729 45.6769 49.9306 45.5581 49.851C45.4393 49.7714 45.3469 49.6582 45.2927 49.5259C45.2386 49.3935 45.2252 49.248 45.2542 49.1079C45.2832 48.9679 45.3534 48.8397 45.4556 48.7397L49.6541 44.6133L53.7848 48.744C53.8546 48.8102 53.9104 48.8897 53.9489 48.9778C53.9875 49.0659 54.008 49.1608 54.0092 49.257C54.0105 49.3532 53.9925 49.4486 53.9563 49.5377C53.92 49.6268 53.8664 49.7077 53.7984 49.7757C53.7303 49.8437 53.6494 49.8974 53.5603 49.9336C53.4712 49.9699 53.3758 49.9879 53.2796 49.9866C53.1835 49.9853 53.0885 49.9648 53.0004 49.9263C52.9123 49.8877 52.8328 49.8319 52.7666 49.7622L49.6442 46.6398L46.4639 49.7664C46.3295 49.8987 46.1484 49.9728 45.9598 49.9726Z" fill="white"/>
<path id="Path 43" d="M49.6184 55.6936C49.4274 55.6936 49.2442 55.6177 49.1091 55.4827C48.974 55.3476 48.8982 55.1644 48.8982 54.9734V45.6232C48.8939 45.526 48.9093 45.429 48.9435 45.338C48.9777 45.2469 49.03 45.1637 49.0973 45.0935C49.1645 45.0232 49.2453 44.9672 49.3347 44.929C49.4242 44.8908 49.5204 44.8711 49.6177 44.8711C49.7149 44.8711 49.8112 44.8908 49.9006 44.929C49.9901 44.9672 50.0709 45.0232 50.1381 45.0935C50.2053 45.1637 50.2576 45.2469 50.2919 45.338C50.3261 45.429 50.3415 45.526 50.3372 45.6232V54.9734C50.3372 55.1642 50.2615 55.3471 50.1268 55.4822C49.992 55.6172 49.8092 55.6932 49.6184 55.6936Z" fill="white"/>
<path id="Path 44" d="M56.4158 60.1401H42.7048C42.2323 60.1394 41.7795 59.9514 41.4454 59.6173C41.1113 59.2832 40.9233 58.8304 40.9226 58.3579V53.3771C40.9183 53.2799 40.9337 53.1829 40.9679 53.0918C41.0021 53.0008 41.0544 52.9176 41.1217 52.8473C41.1889 52.7771 41.2697 52.7211 41.3591 52.6829C41.4486 52.6447 41.5448 52.625 41.6421 52.625C41.7394 52.625 41.8356 52.6447 41.9251 52.6829C42.0145 52.7211 42.0953 52.7771 42.1625 52.8473C42.2297 52.9176 42.2821 53.0008 42.3163 53.0918C42.3505 53.1829 42.3659 53.2799 42.3616 53.3771V58.3579C42.3616 58.4489 42.3978 58.5362 42.4621 58.6006C42.5265 58.6649 42.6138 58.7011 42.7048 58.7011H56.4158C56.5352 58.7007 56.6496 58.6531 56.734 58.5687C56.8184 58.4843 56.866 58.37 56.8663 58.2506V53.3771C56.862 53.2799 56.8774 53.1829 56.9117 53.0918C56.9459 53.0008 56.9982 52.9176 57.0654 52.8473C57.1326 52.7771 57.2134 52.7211 57.3029 52.6829C57.3923 52.6447 57.4886 52.625 57.5858 52.625C57.6831 52.625 57.7794 52.6447 57.8688 52.6829C57.9582 52.7211 58.039 52.7771 58.1063 52.8473C58.1735 52.9176 58.2258 53.0008 58.26 53.0918C58.2942 53.1829 58.3097 53.2799 58.3054 53.3771V58.2506C58.3046 58.7515 58.1053 59.2317 57.7511 59.5859C57.3969 59.9401 56.9167 60.1394 56.4158 60.1401Z" fill="white"/>
</g>
</g>
</g>
</svg>
