<svg width="52" height="56" viewBox="0 0 52 56" fill="none" xmlns="http://www.w3.org/2000/svg">
<g id="apple-13 1">
<g id="Group">
<path id="Vector" fill-rule="evenodd" clip-rule="evenodd" d="M26.0003 3C39.7963 3 50.9803 14.1921 50.9803 27.9983C50.9803 41.8045 39.7963 52.9966 26.0003 52.9966C25.5379 52.9966 25.0786 52.9831 24.6224 52.9582L29.8765 38.1911H35.339C36.9254 38.1911 38.5946 36.8922 39.0483 35.3047L43.6608 22.3407C44.5972 19.7087 42.8453 18.1562 40.8349 18.1504L31.835 18.1477L19.7197 52.1994C8.96376 49.4119 1.02026 39.6336 1.02026 27.9983C1.02026 16.1193 9.29994 6.17557 20.3992 3.63134L8.38985 37.3852H13.5626L19.3795 21.0362H22.3516L16.547 37.3507H21.7198L27.0602 22.3407C27.9966 19.7087 26.2447 18.1562 24.2343 18.1504L20.4101 18.1395L25.7957 3.00258C25.864 3.00204 25.9319 3 26.0003 3Z" fill="#015294"/>
<path id="Vector_2" fill-rule="evenodd" clip-rule="evenodd" d="M30.9045 35.3046L35.9812 21.0361H38.9533L33.8766 35.3046H30.9045Z" fill="#015294"/>
</g>
</g>
</svg>
