<svg width="48" height="48" viewBox="0 0 48 48" fill="none" xmlns="http://www.w3.org/2000/svg">
<g id="Image">
<path id="Fill 1" opacity="0.4" d="M34.0166 47.313H13.9333C6.07925 47.313 0.802979 41.8045 0.802979 33.6045V14.6777C0.802979 6.47762 6.07925 0.966797 13.9333 0.966797H34.0189C41.8729 0.966797 47.1492 6.47762 47.1492 14.6777V33.6045C47.1492 41.8045 41.8729 47.313 34.0166 47.313Z" fill="#0D2F8C"/>
<path id="Combined Shape" fill-rule="evenodd" clip-rule="evenodd" d="M22.2262 16.4356C22.2262 19.6104 19.6424 22.1942 16.4676 22.1942C13.2906 22.1942 10.7091 19.6104 10.7091 16.4356C10.7091 13.2609 13.2906 10.6748 16.4676 10.6748C19.6424 10.6748 22.2262 13.2609 22.2262 16.4356ZM41.1247 28.9783C41.6647 29.5021 42.0517 30.0999 42.3066 30.7372C43.0782 32.6652 42.6773 34.9825 41.8524 36.892C40.8745 39.1652 39.0021 40.8824 36.6431 41.6332C35.5956 41.9692 34.4972 42.1129 33.4011 42.1129H13.9797C12.0471 42.1129 10.3369 41.6633 8.93496 40.8198C8.0567 40.2915 7.90144 39.0749 8.5526 38.2823C9.64174 36.9615 10.717 35.636 11.8015 34.2989C13.8685 31.7406 15.2612 30.999 16.8092 31.6502C17.4372 31.919 18.0675 32.3245 18.7163 32.7509C20.445 33.8957 22.8481 35.4668 26.0135 33.7613C28.1773 32.5781 29.4333 30.5536 30.5265 28.7914L30.5485 28.7559C30.6221 28.6379 30.695 28.5201 30.7678 28.4026C31.1395 27.8019 31.5056 27.2103 31.9204 26.6657C32.4348 25.9913 34.3443 23.8826 36.8122 25.3842C38.3857 26.3297 39.7089 27.6088 41.1247 28.9783Z" fill="#0D2F8C"/>
</g>
</svg>
